# xmcd
#
# Track frame offsets:
#	150
#	16692
#	33597
#	50250
#	66467
#	81032
#	100117
#	114290
#	140342
#	156105
#	177245
#	198492
#
# Disc length: 2858 seconds
#
# Revision: 20
# Processed by: cddbd v1.5.2PL0 Copyright (c) Steve Scherf et al.
# Submitted via: EasyCDDAExtractor 15.3.0.1
#
DISCID=950b280c
DTITLE=Jennifer Lopez - This Is Me... Then
DYEAR=2002
DGENRE=Pop
TTITLE0=Still
TTITLE1=Loving You
TTITLE2=I'm Glad
TTITLE3=The One
TTITLE4=Dear Ben
TTITLE5=All I Have (Featuring LL Cool J)
TTITLE6=Jenny From The Block (Featuring Styles And Jadakiss)
TTITLE7=Again
TTITLE8=You Belong To Me
TTITLE9=I've Been Thinkin'
TTITLE10=Baby I Love U!
TTITLE11=The One (Version 2) (Bonus Track)
EXTD=Year: 2002
EXTT0=
EXTT1=
EXTT2=
EXTT3=
EXTT4=
EXTT5=
EXTT6=
EXTT7=
EXTT8=
EXTT9=
EXTT10=
EXTT11=
PLAYORDER=
